<svg width="292" height="198" viewBox="0 0 292 198" fill="none" xmlns="http://www.w3.org/2000/svg">
<mask id="mask0_0_1" style="mask-type:luminance" maskUnits="userSpaceOnUse" x="7" y="0" width="280" height="198">
<path d="M7.5 0.5H286.5V197.5H7.5V0.5Z" fill="white" stroke="white"/>
</mask>
<g mask="url(#mask0_0_1)">
<path d="M150.102 113.082V112.512H150.211H150.483V113.082H150.211H150.102ZM150.211 115.412H150.483V116.179H150.208H150.102V115.412H150.211ZM151.483 117.519V117.179H152.549C152.941 117.179 153.322 117.083 153.616 116.824C153.917 116.557 154.044 116.192 154.044 115.807V115.79C154.044 115.53 153.987 115.285 153.861 115.066L153.861 115.066L153.858 115.061C153.81 114.98 153.754 114.905 153.69 114.838C153.788 114.874 153.875 114.918 153.951 114.969C154.109 115.074 154.225 115.206 154.305 115.371C154.386 115.538 154.434 115.743 154.434 116.003V116.02C154.434 116.367 154.36 116.639 154.237 116.847C154.116 117.052 153.941 117.212 153.687 117.329C153.427 117.448 153.096 117.519 152.679 117.519H151.483ZM153.903 113.554C153.815 113.612 153.711 113.662 153.587 113.701C153.844 113.446 153.95 113.107 153.95 112.757C153.95 112.397 153.822 112.064 153.536 111.825C153.257 111.589 152.901 111.512 152.553 111.512H151.483V111.181H152.596C153.016 111.181 153.343 111.252 153.599 111.371C153.85 111.488 154.025 111.647 154.146 111.851C154.268 112.063 154.341 112.329 154.341 112.671C154.341 112.89 154.298 113.062 154.227 113.2C154.153 113.343 154.049 113.459 153.907 113.551L153.907 113.551L153.903 113.554ZM151.483 114.412V114.082H152.553C152.826 114.082 153.091 114.03 153.321 113.901L153.332 114.577C153.32 114.572 153.308 114.566 153.295 114.56C153.063 114.453 152.808 114.412 152.553 114.412H151.483Z" fill="white" stroke="#354248"/>
</g>
<mask id="mask1_0_1" style="mask-type:luminance" maskUnits="userSpaceOnUse" x="0" y="0" width="280" height="198">
<path d="M0.5 0.5H279.5V197.5H0.5V0.5Z" fill="white" stroke="white"/>
</mask>
<g mask="url(#mask1_0_1)">
<path d="M155.591 111.175H156.024V117.509H155.591V111.175Z" fill="white" stroke="#354248"/>
</g>
<mask id="mask2_0_1" style="mask-type:luminance" maskUnits="userSpaceOnUse" x="8" y="0" width="280" height="198">
<path d="M8.5 0.5H287.5V197.5H8.5V0.5Z" fill="white" stroke="white"/>
</mask>
<g mask="url(#mask2_0_1)">
<path d="M158.151 111.175V116.179H157.886H157.771V111.175H158.151ZM159.151 117.179H161.683V117.509H159.151V117.179Z" fill="white" stroke="#354248"/>
</g>
<mask id="mask3_0_1" style="mask-type:luminance" maskUnits="userSpaceOnUse" x="8" y="0" width="280" height="198">
<path d="M8.5 0.5H287.5V197.5H8.5V0.5Z" fill="white" stroke="white"/>
</mask>
<g mask="url(#mask3_0_1)">
<path d="M163.591 111.175H164.025V117.509H163.591V111.175Z" fill="white" stroke="#354248"/>
</g>
<mask id="mask4_0_1" style="mask-type:luminance" maskUnits="userSpaceOnUse" x="8" y="0" width="280" height="198">
<path d="M8.5 0.5H287.5V197.5H8.5V0.5Z" fill="white" stroke="white"/>
</mask>
<g mask="url(#mask4_0_1)">
<path d="M170.31 111.505H169.308V111.274V111.175H170.31V111.505ZM165.932 111.175H166.928V111.274V111.505H165.932V111.175ZM167.928 117.509V112.505H168.308V117.509H167.928Z" fill="white" stroke="#354248"/>
</g>
<path d="M174.051 114.962L174.002 115.065V115.178V117.509H173.618V115.178V115.065L173.569 114.962L171.754 111.175H172.082L173.353 114.035L173.81 115.062L174.267 114.035L175.539 111.175H175.866L174.051 114.962Z" fill="white" stroke="#354248"/>
<mask id="mask5_0_1" style="mask-type:luminance" maskUnits="userSpaceOnUse" x="12" y="0" width="280" height="198">
<path d="M12.5 0.5H291.5V197.5H12.5V0.5Z" fill="white" stroke="white"/>
</mask>
<g mask="url(#mask5_0_1)">
</g>
<mask id="mask6_0_1" style="mask-type:luminance" maskUnits="userSpaceOnUse" x="8" y="0" width="280" height="198">
<path d="M8.5 0.5H287.5V197.5H8.5V0.5Z" fill="white" stroke="white"/>
</mask>
<g mask="url(#mask6_0_1)">
<path d="M128.376 77.4298C128.376 77.4298 117.836 82.4922 116.306 94.8822" stroke="#354248" stroke-width="4" stroke-miterlimit="10" stroke-linecap="round" stroke-linejoin="round"/>
</g>
<mask id="mask7_0_1" style="mask-type:luminance" maskUnits="userSpaceOnUse" x="8" y="0" width="280" height="198">
<path d="M8.5 0.5H287.5V197.5H8.5V0.5Z" fill="white" stroke="white"/>
</mask>
<g mask="url(#mask7_0_1)">
<path d="M161.315 77.5196C161.315 77.5196 171.855 82.582 173.385 94.972" stroke="#354248" stroke-width="4" stroke-miterlimit="10" stroke-linecap="round" stroke-linejoin="round"/>
</g>
<mask id="mask8_0_1" style="mask-type:luminance" maskUnits="userSpaceOnUse" x="8" y="0" width="280" height="198">
<path d="M8.5 0.5H287.5V197.5H8.5V0.5Z" fill="white" stroke="white"/>
</mask>
<g mask="url(#mask8_0_1)">
<path d="M129.144 94.6771H138.289V96.1318H126.647V86.3473C126.647 85.7959 127.095 85.3505 127.644 85.3505H161.781C162.333 85.3505 162.777 85.7952 162.777 86.3473V96.1318H154.99V89.2743C154.99 88.5059 154.367 87.8829 153.599 87.8829H139.677C138.907 87.8829 138.289 88.5071 138.289 89.271V92.7757H129.144H128.644V93.2757V94.1771V94.6771H129.144Z" fill="white" stroke="#354248"/>
</g>
<mask id="mask9_0_1" style="mask-type:luminance" maskUnits="userSpaceOnUse" x="8" y="0" width="280" height="198">
<path d="M8.5 0.5H287.5V197.5H8.5V0.5Z" fill="white" stroke="white"/>
</mask>
<g mask="url(#mask9_0_1)">
<path d="M138.286 98.179V99.714H126.647V98.0902L138.286 98.179Z" fill="white" stroke="#354248"/>
</g>
<mask id="mask10_0_1" style="mask-type:luminance" maskUnits="userSpaceOnUse" x="8" y="0" width="280" height="198">
<path d="M8.5 0.5H287.5V197.5H8.5V0.5Z" fill="white" stroke="white"/>
</mask>
<g mask="url(#mask10_0_1)">
<path d="M126.125 103.552L126.555 101.449L138.286 101.538V103.552H126.125Z" fill="white" stroke="#354248"/>
</g>
<mask id="mask11_0_1" style="mask-type:luminance" maskUnits="userSpaceOnUse" x="8" y="0" width="280" height="198">
<path d="M8.5 0.5H287.5V197.5H8.5V0.5Z" fill="white" stroke="white"/>
</mask>
<g mask="url(#mask11_0_1)">
<path d="M150.239 100.2H148.564H148.062L148.064 100.701L148.072 103.552H140.224V91.2444H153.039V100.19H152.447L152.072 99.0557L151.961 98.7212L151.609 98.713L150.75 98.693L150.239 98.6811V99.1929V100.2ZM145.541 94.5207H146.041V94.0207V93.0827V92.5827H145.541H142.055H141.555V93.0827V94.0207V94.5207H142.055H145.541Z" fill="white" stroke="#354248"/>
</g>
<mask id="mask12_0_1" style="mask-type:luminance" maskUnits="userSpaceOnUse" x="8" y="0" width="280" height="198">
<path d="M8.5 0.5H287.5V197.5H8.5V0.5Z" fill="white" stroke="white"/>
</mask>
<g mask="url(#mask12_0_1)">
<path d="M158.643 99.0832L158.515 98.7761H158.182H156.988H156.544L156.492 99.2175L156.384 100.13H154.957V98.1196H162.777V99.7307H158.914L158.643 99.0832Z" fill="white" stroke="#354248"/>
</g>
<mask id="mask13_0_1" style="mask-type:luminance" maskUnits="userSpaceOnUse" x="8" y="0" width="280" height="198">
<path d="M8.5 0.5H287.5V197.5H8.5V0.5Z" fill="white" stroke="white"/>
</mask>
<g mask="url(#mask13_0_1)">
<path d="M163.347 103.466H160.226L160.188 101.496H162.84L163.347 103.466Z" fill="white" stroke="#354248"/>
</g>
<mask id="mask14_0_1" style="mask-type:luminance" maskUnits="userSpaceOnUse" x="8" y="0" width="280" height="198">
<path d="M8.5 0.5H287.5V197.5H8.5V0.5Z" fill="white" stroke="white"/>
</mask>
<g mask="url(#mask14_0_1)">
<path d="M133.402 83.4258C134.449 82.169 135.838 81.197 137.101 80.4944C136.723 80.9223 136.396 81.3444 136.12 81.7336C135.727 82.2876 135.434 82.7796 135.238 83.1348C135.176 83.2458 135.125 83.3435 135.082 83.4258H133.402Z" fill="white" stroke="#354248"/>
</g>
<mask id="mask15_0_1" style="mask-type:luminance" maskUnits="userSpaceOnUse" x="8" y="0" width="280" height="198">
<path d="M8.5 0.5H287.5V197.5H8.5V0.5Z" fill="white" stroke="white"/>
</mask>
<g mask="url(#mask15_0_1)">
<path d="M137.147 83.4258C138.239 81.5797 139.666 80.4342 140.872 79.7374C141.395 79.4353 141.875 79.2181 142.267 79.0655C141.769 80.2535 141.414 81.313 141.172 82.1286C141.018 82.6499 140.909 83.0724 140.839 83.366C140.834 83.3866 140.83 83.4065 140.825 83.4258H137.147Z" fill="white" stroke="#354248"/>
</g>
<mask id="mask16_0_1" style="mask-type:luminance" maskUnits="userSpaceOnUse" x="8" y="0" width="280" height="198">
<path d="M8.5 0.5H287.5V197.5H8.5V0.5Z" fill="white" stroke="white"/>
</mask>
<g mask="url(#mask16_0_1)">
<path d="M142.72 83.4258C142.748 83.3272 142.78 83.2192 142.816 83.1034C142.954 82.6565 143.137 82.1131 143.322 81.5842C143.506 81.0563 143.69 80.5469 143.827 80.1692C143.832 80.1566 143.837 80.1442 143.841 80.1319C143.966 80.2384 144.098 80.3613 144.225 80.4856C144.371 80.629 144.506 80.7693 144.609 80.8801L144.46 81.2726H145.053C145.114 81.62 145.169 81.9898 145.217 82.3475C145.272 82.7565 145.317 83.1361 145.349 83.4258H142.72Z" fill="white" stroke="#354248"/>
</g>
<mask id="mask17_0_1" style="mask-type:luminance" maskUnits="userSpaceOnUse" x="8" y="0" width="280" height="198">
<path d="M8.5 0.5H287.5V197.5H8.5V0.5Z" fill="white" stroke="white"/>
</mask>
<g mask="url(#mask17_0_1)">
<path d="M148.295 81.8641C148.144 81.8359 148.01 81.8821 147.919 81.9442C147.837 82.0005 147.792 82.0671 147.773 82.0977C147.735 82.1604 147.719 82.2181 147.714 82.2354C147.701 82.2818 147.694 82.327 147.691 82.353C147.682 82.413 147.676 82.488 147.672 82.5637C147.662 82.7191 147.654 82.9228 147.648 83.1211C147.645 83.2251 147.643 83.329 147.64 83.4258H147.203C147.188 83.2161 147.158 82.9675 147.118 82.6994C147.033 82.1246 146.901 81.4254 146.764 80.7535C146.634 80.1195 146.499 79.5039 146.392 79.0303C147.686 79.6069 148.889 80.6957 149.84 81.7625C150.393 82.3834 150.845 82.9791 151.162 83.4258H150.246C150.204 83.3687 150.159 83.3114 150.117 83.2573C149.99 83.0952 149.838 82.9109 149.693 82.7391C149.548 82.5667 149.407 82.4041 149.304 82.2847C149.252 82.225 149.209 82.176 149.179 82.1418L149.144 82.1021L149.134 82.0916L149.132 82.0888L149.131 82.0881L149.131 82.0879L149.131 82.0878L148.757 82.4191M148.295 81.8641C148.294 81.8639 148.298 81.8644 148.307 81.8655C148.318 81.8669 148.339 81.8696 148.372 81.8734C148.424 81.8796 148.49 81.887 148.556 81.8942L148.732 81.9135L148.788 81.9196L148.804 81.9213L148.808 81.9217L148.809 81.9218L148.81 81.9219L148.81 81.9219L148.81 81.9219L148.757 82.4191M148.295 81.8641C148.295 81.8641 148.296 81.8643 148.297 81.8644L148.205 82.3559M148.295 81.8641L148.158 82.8543C148.15 82.8533 148.144 82.8523 148.137 82.8514M148.295 81.8641C148.305 81.866 148.315 81.8682 148.326 81.8708L148.205 82.3559M148.295 81.8641L148.205 82.3559M148.757 82.4191L149.131 82.0878L149.003 81.9425L148.81 81.9219L148.757 82.4191ZM148.205 82.3559C148.197 82.354 148.19 82.385 148.184 82.4395C148.182 82.4569 148.18 82.4766 148.178 82.4985C148.17 82.5886 148.163 82.7142 148.158 82.8537C148.151 82.8531 148.144 82.8523 148.137 82.8514M148.137 82.8514C148.127 82.8499 148.119 82.8485 148.112 82.8473L148.108 82.8465M148.137 82.8514C148.128 82.8501 148.118 82.8485 148.108 82.8465M148.108 82.8465C148.1 82.8449 148.092 82.843 148.083 82.8409L148.098 82.8446L148.108 82.8465Z" fill="white" stroke="#354248"/>
</g>
<mask id="mask18_0_1" style="mask-type:luminance" maskUnits="userSpaceOnUse" x="8" y="0" width="280" height="198">
<path d="M8.5 0.5H287.5V197.5H8.5V0.5Z" fill="white" stroke="white"/>
</mask>
<g mask="url(#mask18_0_1)">
<path d="M154.063 83.1171C153.748 82.9446 153.3 82.7791 152.791 82.8288C152.765 82.7878 152.736 82.7432 152.704 82.695C152.523 82.4212 152.253 82.0334 151.892 81.5693C151.473 81.0307 150.932 80.3882 150.266 79.7009C150.579 79.8248 150.916 79.9681 151.267 80.1324C152.759 80.8304 154.48 81.8933 155.793 83.4395L154.558 83.4564C154.552 83.4511 154.545 83.4458 154.539 83.4404C154.426 83.3476 154.264 83.227 154.063 83.1171Z" fill="white" stroke="#354248"/>
</g>
<mask id="mask19_0_1" style="mask-type:luminance" maskUnits="userSpaceOnUse" x="8" y="0" width="280" height="198">
<path d="M8.5 0.5H287.5V197.5H8.5V0.5Z" fill="white" stroke="white"/>
</mask>
<g mask="url(#mask19_0_1)">
<path d="M115.774 117.49L115.773 117.49C115.473 117.427 115.197 117.336 114.937 117.216C114.815 117.159 114.7 117.098 114.593 117.033L114.748 116.757C114.952 116.873 115.168 116.969 115.398 117.046C115.819 117.19 116.252 117.262 116.699 117.262C117.192 117.262 117.651 117.18 118.009 116.958C118.399 116.718 118.619 116.344 118.619 115.884V115.877C118.619 115.579 118.53 115.291 118.311 115.066C118.135 114.884 117.911 114.758 117.665 114.683L117.662 114.682C117.464 114.624 117.226 114.571 116.945 114.527C116.938 114.525 116.928 114.522 116.916 114.52L116.899 114.514L116.857 114.508L116.748 114.491C116.275 114.418 115.904 114.328 115.621 114.226C115.395 114.144 115.198 114.002 115.026 113.778C114.891 113.604 114.791 113.315 114.791 112.847V112.843C114.791 112.445 114.879 112.139 115.032 111.897C115.187 111.654 115.411 111.46 115.734 111.32L115.734 111.32L115.735 111.319C116.059 111.177 116.476 111.095 116.998 111.095C117.223 111.095 117.456 111.121 117.696 111.173C117.937 111.226 118.175 111.302 118.405 111.405L118.405 111.405L118.41 111.407C118.509 111.449 118.606 111.496 118.7 111.547L118.561 111.826C118.393 111.74 118.222 111.667 118.047 111.606L118.045 111.606C117.696 111.486 117.348 111.415 116.998 111.415C116.532 111.415 116.099 111.491 115.756 111.696C115.386 111.918 115.164 112.27 115.164 112.714V112.717C115.164 113.028 115.255 113.332 115.491 113.57C115.674 113.757 115.896 113.887 116.146 113.966C116.348 114.029 116.613 114.092 116.934 114.159C116.949 114.162 116.983 114.17 117.026 114.175L117.041 114.177C117.086 114.191 117.124 114.199 117.151 114.204C117.59 114.289 117.942 114.39 118.212 114.502C118.434 114.595 118.624 114.745 118.778 114.959L118.778 114.959L118.78 114.962C118.905 115.132 118.996 115.41 118.996 115.844V115.854C118.996 116.239 118.906 116.542 118.749 116.779C118.592 117.017 118.357 117.212 118.017 117.356C117.676 117.499 117.244 117.579 116.702 117.579V117.579L116.693 117.579C116.378 117.585 116.073 117.553 115.774 117.49Z" fill="white" stroke="#354248"/>
</g>
<mask id="mask20_0_1" style="mask-type:luminance" maskUnits="userSpaceOnUse" x="8" y="0" width="280" height="198">
<path d="M8.5 0.5H287.5V197.5H8.5V0.5Z" fill="white" stroke="white"/>
</mask>
<g mask="url(#mask20_0_1)">
<path d="M124.62 111.505H123.624V111.274V111.175H124.62V111.505ZM120.242 111.175H121.241V111.274V111.505H120.242V111.175ZM122.241 117.509V112.505H122.624V117.509H122.241Z" fill="white" stroke="#354248"/>
</g>
<mask id="mask21_0_1" style="mask-type:luminance" maskUnits="userSpaceOnUse" x="8" y="0" width="280" height="198">
<path d="M8.5 0.5H287.5V197.5H8.5V0.5Z" fill="white" stroke="white"/>
</mask>
<g mask="url(#mask21_0_1)">
<path d="M127.086 117.322L127.085 117.322C126.777 117.158 126.543 116.92 126.38 116.6C126.215 116.278 126.122 115.868 126.122 115.351V111.172H126.506V115.388C126.506 115.898 126.645 116.363 126.986 116.714C127.33 117.068 127.789 117.215 128.299 117.215C128.807 117.215 129.274 117.069 129.619 116.714C129.96 116.363 130.1 115.898 130.1 115.388V111.172H130.48V115.351C130.48 115.866 130.385 116.276 130.219 116.6C130.056 116.918 129.824 117.153 129.511 117.322C129.196 117.488 128.798 117.582 128.296 117.582L128.293 117.582C127.796 117.585 127.4 117.491 127.086 117.322Z" fill="white" stroke="#354248"/>
</g>
<mask id="mask22_0_1" style="mask-type:luminance" maskUnits="userSpaceOnUse" x="8" y="0" width="280" height="198">
<path d="M8.5 0.5H287.5V197.5H8.5V0.5Z" fill="white" stroke="white"/>
</mask>
<g mask="url(#mask22_0_1)">
<path d="M132.893 116.179V112.509H133.089H133.274V116.179H133.089H132.893ZM134.274 111.178H134.818C135.375 111.178 135.82 111.272 136.169 111.439C136.516 111.604 136.765 111.835 136.934 112.132L136.934 112.132L136.936 112.135C137.109 112.436 137.208 112.821 137.208 113.309V115.388C137.208 115.846 137.114 116.22 136.944 116.527C136.781 116.824 136.533 117.062 136.181 117.241C135.839 117.415 135.39 117.512 134.815 117.512H134.274V117.179H134.848C135.377 117.179 135.861 117.05 136.23 116.73L136.23 116.73L136.233 116.728C136.613 116.393 136.775 115.934 136.775 115.425V113.266C136.775 112.753 136.607 112.297 136.235 111.965L136.235 111.965L136.233 111.963C135.863 111.638 135.381 111.509 134.848 111.509H134.274V111.178Z" fill="white" stroke="#354248"/>
</g>
<mask id="mask23_0_1" style="mask-type:luminance" maskUnits="userSpaceOnUse" x="8" y="0" width="280" height="198">
<path d="M8.5 0.5H287.5V197.5H8.5V0.5Z" fill="white" stroke="white"/>
</mask>
<g mask="url(#mask23_0_1)">
<path d="M141.205 114.962L141.156 115.065V115.178V117.509H140.772V115.178V115.065L140.723 114.962L138.908 111.175H139.236L140.507 114.035L140.965 115.063L141.421 114.034L142.69 111.175H143.02L141.205 114.962Z" fill="white" stroke="#354248"/>
</g>
<mask id="mask24_0_1" style="mask-type:luminance" maskUnits="userSpaceOnUse" x="7" y="0" width="281" height="198">
<path d="M8 0.5H287V197.5H8V0.5Z" fill="white" stroke="white"/>
</mask>
<g mask="url(#mask24_0_1)">
<path d="M148.062 117.509L148 117.332H148.4L148.468 117.509H148.062ZM147.509 115.001H147.183L146.424 112.834L145.952 111.488L145.48 112.834L144.72 115.001H144.394L145.857 111.175H146.047L147.509 115.001ZM143.841 117.509H143.436L143.556 117.194V117.332H143.903L143.841 117.509ZM146.59 116.332H145.314L145.43 116.001H146.474L146.59 116.332Z" fill="white" stroke="#354248"/>
</g>
</svg>
