<svg width="223" height="158" viewBox="0 0 223 158" fill="none" xmlns="http://www.w3.org/2000/svg">
<g clip-path="url(#clip0_276_1078)">
<path d="M48.9384 65.486H112.193" stroke="white" stroke-width="4" stroke-miterlimit="10" stroke-linecap="round" stroke-linejoin="round"/>
<mask id="mask0_276_1078" style="mask-type:luminance" maskUnits="userSpaceOnUse" x="-57" y="-40" width="280" height="198">
<path d="M223 -40H-57V158H223V-40Z" fill="white"/>
</mask>
<g mask="url(#mask0_276_1078)">
<path d="M63.3758 37.4298C63.3758 37.4298 52.8362 42.4922 51.3063 54.8822" stroke="white" stroke-width="4" stroke-miterlimit="10" stroke-linecap="round" stroke-linejoin="round"/>
</g>
<mask id="mask1_276_1078" style="mask-type:luminance" maskUnits="userSpaceOnUse" x="-57" y="-40" width="280" height="198">
<path d="M223 -40H-57V158H223V-40Z" fill="white"/>
</mask>
<g mask="url(#mask1_276_1078)">
<path d="M96.3151 37.5196C96.3151 37.5196 106.855 42.582 108.385 54.972" stroke="white" stroke-width="4" stroke-miterlimit="10" stroke-linecap="round" stroke-linejoin="round"/>
</g>
<mask id="mask2_276_1078" style="mask-type:luminance" maskUnits="userSpaceOnUse" x="-57" y="-40" width="280" height="198">
<path d="M223 -40H-57V158H223V-40Z" fill="white"/>
</mask>
<g mask="url(#mask2_276_1078)">
<path d="M73.7857 56.6318H61.1475V46.3473C61.1475 45.5191 61.8193 44.8505 62.6441 44.8505H96.7806C97.6088 44.8505 98.2773 45.5191 98.2773 46.3473V56.6318H89.4904V49.2743C89.4904 48.782 89.0913 48.3829 88.599 48.3829H74.677C74.1848 48.3829 73.789 48.782 73.789 49.271V53.2757H64.1441V54.1771H73.789V56.6318H73.7857Z" fill="white"/>
</g>
<mask id="mask3_276_1078" style="mask-type:luminance" maskUnits="userSpaceOnUse" x="-57" y="-40" width="280" height="198">
<path d="M223 -40H-57V158H223V-40Z" fill="white"/>
</mask>
<g mask="url(#mask3_276_1078)">
<path d="M61.1475 57.5864L73.7857 57.6828V60.214H61.1475V57.5864Z" fill="white"/>
</g>
<mask id="mask4_276_1078" style="mask-type:luminance" maskUnits="userSpaceOnUse" x="-57" y="-40" width="280" height="198">
<path d="M223 -40H-57V158H223V-40Z" fill="white"/>
</mask>
<g mask="url(#mask4_276_1078)">
<path d="M73.7857 61.0423L61.1474 60.9458L60.5122 64.0524H73.7857V61.0423Z" fill="white"/>
</g>
<mask id="mask5_276_1078" style="mask-type:luminance" maskUnits="userSpaceOnUse" x="-57" y="-40" width="280" height="198">
<path d="M223 -40H-57V158H223V-40Z" fill="white"/>
</mask>
<g mask="url(#mask5_276_1078)">
<path d="M74.7236 50.7411V64.0524H83.4374H83.5737L83.5637 60.6997H85.7388V59.1929L86.5969 59.2129L87.0858 60.6897H88.5392V50.7444H74.7236V50.7411ZM80.5405 54.0207H77.0551V53.0827H80.5405V54.0207Z" fill="white"/>
</g>
<mask id="mask6_276_1078" style="mask-type:luminance" maskUnits="userSpaceOnUse" x="-57" y="-40" width="280" height="198">
<path d="M223 -40H-57V158H223V-40Z" fill="white"/>
</mask>
<g mask="url(#mask6_276_1078)">
<path d="M89.4572 60.6298V57.6196H98.2773V60.2307H93.5812L93.1821 59.2761H91.9881L91.8285 60.6298H89.4572Z" fill="white"/>
</g>
<mask id="mask7_276_1078" style="mask-type:luminance" maskUnits="userSpaceOnUse" x="-57" y="-40" width="280" height="198">
<path d="M223 -40H-57V158H223V-40Z" fill="white"/>
</mask>
<g mask="url(#mask7_276_1078)">
<path d="M98.2274 60.9957H94.6787L94.7353 63.966H98.9923L98.2274 60.9957Z" fill="white"/>
</g>
<mask id="mask8_276_1078" style="mask-type:luminance" maskUnits="userSpaceOnUse" x="-57" y="-40" width="280" height="198">
<path d="M223 -40H-57V158H223V-40Z" fill="white"/>
</mask>
<g mask="url(#mask8_276_1078)">
<path d="M74.9797 38.6705C74.9797 38.6705 69.788 40.2837 67.41 43.9258H70.3933C70.3933 43.9258 71.8899 40.603 74.9797 38.6705Z" fill="white"/>
</g>
<mask id="mask9_276_1078" style="mask-type:luminance" maskUnits="userSpaceOnUse" x="-57" y="-40" width="280" height="198">
<path d="M223 -40H-57V158H223V-40Z" fill="white"/>
</mask>
<g mask="url(#mask9_276_1078)">
<path d="M78.1692 38.258C78.1692 38.258 73.6627 39.1594 71.308 43.9258H76.2269C76.2269 43.9258 76.7125 41.4013 78.1692 38.258Z" fill="white"/>
</g>
<mask id="mask10_276_1078" style="mask-type:luminance" maskUnits="userSpaceOnUse" x="-57" y="-40" width="280" height="198">
<path d="M223 -40H-57V158H223V-40Z" fill="white"/>
</mask>
<g mask="url(#mask10_276_1078)">
<path d="M78.5882 39.3723C78.5882 39.3723 77.1149 43.3138 77.0983 43.9258H80.903C80.903 43.9258 80.6237 40.9156 80.2179 39.7947C80.2179 39.7947 80.2745 40.5364 80.1847 40.7726C80.1913 40.7726 79.0838 39.522 78.5882 39.3723Z" fill="white"/>
</g>
<mask id="mask11_276_1078" style="mask-type:luminance" maskUnits="userSpaceOnUse" x="-57" y="-40" width="280" height="198">
<path d="M223 -40H-57V158H223V-40Z" fill="white"/>
</mask>
<g mask="url(#mask11_276_1078)">
<path d="M80.7002 38.258C80.7002 38.258 81.9008 43.2905 81.688 43.9258H83.1314C83.1314 43.9258 83.1513 42.3426 83.2046 42.3559C83.2578 42.3658 83.7567 42.4191 83.7567 42.4191C83.7567 42.4191 84.8276 43.6298 84.9772 43.9258H87.0991C87.0991 43.9258 84.2023 39.1594 80.7002 38.258Z" fill="white"/>
</g>
<mask id="mask12_276_1078" style="mask-type:luminance" maskUnits="userSpaceOnUse" x="-57" y="-40" width="280" height="198">
<path d="M223 -40H-57V158H223V-40Z" fill="white"/>
</mask>
<g mask="url(#mask12_276_1078)">
<path d="M83.301 38.5441C83.301 38.5441 88.945 39.7781 91.7952 43.9258L89.3674 43.9591C89.3674 43.9591 88.5226 43.0743 87.5481 43.387C87.5481 43.3836 86.1613 40.9755 83.301 38.5441Z" fill="white"/>
</g>
<mask id="mask13_276_1078" style="mask-type:luminance" maskUnits="userSpaceOnUse" x="-57" y="-40" width="280" height="198">
<path d="M223 -40H-57V158H223V-40Z" fill="white"/>
</mask>
<g mask="url(#mask13_276_1078)">
<path d="M50.6711 77.9791C50.3352 77.9092 50.0226 77.8061 49.7266 77.6698C49.4339 77.5334 49.1678 77.3704 48.9384 77.1775L49.5802 76.0366C49.8629 76.2694 50.1889 76.4491 50.558 76.5721C50.9272 76.6985 51.3064 76.7617 51.6988 76.7617C52.1478 76.7617 52.5003 76.6852 52.7465 76.5322C52.9959 76.3792 53.119 76.163 53.119 75.8836V75.877C53.119 75.6807 53.0624 75.5277 52.9527 75.4146C52.8429 75.3015 52.6966 75.215 52.5203 75.1618C52.3407 75.1086 52.1145 75.0587 51.8352 75.0155C51.8252 75.0122 51.8152 75.0088 51.8086 75.0088C51.7986 75.0088 51.7919 75.0055 51.782 75.0022L51.6722 74.9855C51.18 74.909 50.7742 74.8126 50.4516 74.6962C50.129 74.5797 49.8563 74.3768 49.6301 74.0841C49.404 73.7914 49.2909 73.379 49.2909 72.8468V72.8435C49.2909 72.3679 49.3973 71.9654 49.6102 71.6294C49.823 71.2935 50.129 71.0374 50.5348 70.8611C50.9372 70.6848 51.4261 70.595 51.9981 70.595C52.2609 70.595 52.5303 70.6249 52.803 70.6848C53.0757 70.7447 53.3451 70.8312 53.6079 70.9476C53.8706 71.0607 54.12 71.2004 54.3528 71.36L53.7675 72.5308C53.4848 72.3346 53.1888 72.1849 52.8828 72.0785C52.5735 71.972 52.2808 71.9155 51.9981 71.9155C51.5758 71.9155 51.2465 71.9853 51.0137 72.125C50.7809 72.2647 50.6645 72.461 50.6645 72.7138V72.7171C50.6645 72.93 50.7243 73.0963 50.8474 73.2194C50.9671 73.3424 51.1168 73.4322 51.2964 73.4888C51.476 73.5453 51.7254 73.6052 52.048 73.6717C52.0613 73.675 52.0746 73.6784 52.0879 73.6784C52.1012 73.6784 52.1145 73.6817 52.1278 73.685C52.1478 73.6883 52.1678 73.6917 52.1844 73.6983C52.2043 73.705 52.221 73.7083 52.2409 73.7116C52.7032 73.8014 53.0923 73.9112 53.405 74.0409C53.7143 74.1706 53.977 74.3802 54.1832 74.6662C54.3927 74.9523 54.4958 75.3481 54.4958 75.8437V75.8537C54.4958 76.3193 54.3861 76.7218 54.1666 77.0544C53.9471 77.387 53.6278 77.6398 53.2121 77.8161C52.793 77.9924 52.2908 78.0789 51.7021 78.0789C51.3463 78.0855 51.0037 78.0489 50.6711 77.9791Z" fill="white"/>
</g>
<mask id="mask14_276_1078" style="mask-type:luminance" maskUnits="userSpaceOnUse" x="-57" y="-40" width="280" height="198">
<path d="M223 -40H-57V158H223V-40Z" fill="white"/>
</mask>
<g mask="url(#mask14_276_1078)">
<path d="M54.7419 70.6748H60.1198V72.0053H54.7419V70.6748ZM56.7408 71.2736H58.1243V78.009H56.7408V71.2736Z" fill="white"/>
</g>
<mask id="mask15_276_1078" style="mask-type:luminance" maskUnits="userSpaceOnUse" x="-57" y="-40" width="280" height="198">
<path d="M223 -40H-57V158H223V-40Z" fill="white"/>
</mask>
<g mask="url(#mask15_276_1078)">
<path d="M61.8493 77.7629C61.4502 77.55 61.1442 77.2374 60.9347 76.8282C60.7252 76.4191 60.6221 75.9268 60.6221 75.3514V70.6715H62.0056V75.388C62.0056 75.8071 62.1187 76.1331 62.3449 76.3659C62.571 76.5987 62.887 76.7151 63.2994 76.7151C63.7118 76.7151 64.0344 76.5987 64.2606 76.3659C64.4867 76.1331 64.5998 75.8071 64.5998 75.388V70.6715H65.98V75.3514C65.98 75.9268 65.8736 76.4191 65.6641 76.8282C65.4545 77.2374 65.1486 77.5467 64.7461 77.7629C64.3437 77.9758 63.8615 78.0822 63.2961 78.0822C62.734 78.0855 62.2517 77.9791 61.8493 77.7629Z" fill="white"/>
</g>
<mask id="mask16_276_1078" style="mask-type:luminance" maskUnits="userSpaceOnUse" x="-57" y="-40" width="280" height="198">
<path d="M223 -40H-57V158H223V-40Z" fill="white"/>
</mask>
<g mask="url(#mask16_276_1078)">
<path d="M67.3934 70.6748H68.7737V78.009H67.3934V70.6748ZM68.0885 76.6786H69.8479C70.3002 76.6786 70.6528 76.5688 70.9022 76.3526C71.1516 76.1331 71.2747 75.8237 71.2747 75.4246V73.2659C71.2747 72.8668 71.1483 72.5574 70.9022 72.3379C70.6528 72.1184 70.3036 72.0086 69.8479 72.0086H68.0885V70.6782H69.818C70.4299 70.6782 70.9521 70.7813 71.3845 70.9875C71.8168 71.1937 72.1461 71.4931 72.3689 71.8856C72.5951 72.2781 72.7081 72.7537 72.7081 73.3092V75.388C72.7081 75.9169 72.5984 76.3759 72.3822 76.7684C72.166 77.1609 71.8401 77.4669 71.4077 77.6864C70.9754 77.9059 70.4432 78.0124 69.8147 78.0124H68.0885V76.6786Z" fill="white"/>
</g>
<mask id="mask17_276_1078" style="mask-type:luminance" maskUnits="userSpaceOnUse" x="-57" y="-40" width="280" height="198">
<path d="M223 -40H-57V158H223V-40Z" fill="white"/>
</mask>
<g mask="url(#mask17_276_1078)">
<path d="M76.6559 75.1785V78.009H75.2724V75.1785L73.1139 70.6748H74.5606L75.9641 73.8314L77.3643 70.6748H78.8144L76.6559 75.1785Z" fill="white"/>
</g>
<mask id="mask18_276_1078" style="mask-type:luminance" maskUnits="userSpaceOnUse" x="-57" y="-40" width="280" height="198">
<path d="M223 -40H-57V158H223V-40Z" fill="white"/>
</mask>
<g mask="url(#mask18_276_1078)">
<path d="M81.0128 70.6748H81.8908L84.6945 78.009H83.2079L81.4518 72.9998L79.6958 78.009H78.2091L81.0128 70.6748ZM79.5561 75.5011H83.4141V76.8316H79.5561V75.5011Z" fill="white"/>
</g>
<mask id="mask19_276_1078" style="mask-type:luminance" maskUnits="userSpaceOnUse" x="-57" y="-40" width="280" height="198">
<path d="M223 -40H-57V158H223V-40Z" fill="white"/>
</mask>
<g mask="url(#mask19_276_1078)">
<path d="M85.6025 70.6748H86.9828V78.009H85.6025V70.6748ZM86.2078 76.6786H88.5492C88.8652 76.6786 89.1113 76.6021 89.2843 76.4491C89.4572 76.2961 89.5437 76.0799 89.5437 75.8071V75.7905C89.5437 75.6042 89.5038 75.4479 89.4273 75.3148C89.3508 75.1851 89.2377 75.082 89.088 75.0155C88.9384 74.9456 88.7588 74.9124 88.5526 74.9124H86.2112V73.5819H88.5526C88.8386 73.5819 89.0581 73.5087 89.2144 73.3657C89.3707 73.2227 89.4506 73.0165 89.4506 72.757C89.4506 72.5209 89.3707 72.3379 89.2144 72.2082C89.0581 72.0752 88.8353 72.012 88.5526 72.012H86.2112V70.6815H88.5958C89.0714 70.6815 89.4738 70.7613 89.8097 70.9176C90.1457 71.074 90.4017 71.3002 90.578 71.5995C90.751 71.8989 90.8408 72.2548 90.8408 72.6705C90.8408 72.9566 90.7842 73.2094 90.6711 73.4289C90.5581 73.6484 90.3951 73.8314 90.1789 73.9711C89.9627 74.1141 89.7033 74.2072 89.4007 74.2571C89.7233 74.3004 89.9993 74.4001 90.2288 74.5531C90.4583 74.7061 90.6346 74.9057 90.7543 75.1519C90.874 75.398 90.9339 75.6807 90.9339 76.0034V76.02C90.9339 76.4391 90.8441 76.8016 90.6678 77.101C90.4915 77.4003 90.2354 77.6265 89.8962 77.7828C89.557 77.9392 89.1512 78.019 88.679 78.019H86.2078V76.6786Z" fill="white"/>
</g>
<mask id="mask20_276_1078" style="mask-type:luminance" maskUnits="userSpaceOnUse" x="-57" y="-40" width="280" height="198">
<path d="M223 -40H-57V158H223V-40Z" fill="white"/>
</mask>
<g mask="url(#mask20_276_1078)">
<path d="M92.2708 70.6748H93.651V78.009H92.2708V70.6748ZM92.886 76.6786H97.183V78.009H92.886V76.6786Z" fill="white"/>
</g>
<mask id="mask21_276_1078" style="mask-type:luminance" maskUnits="userSpaceOnUse" x="-57" y="-40" width="280" height="198">
<path d="M223 -40H-57V158H223V-40Z" fill="white"/>
</mask>
<g mask="url(#mask21_276_1078)">
<path d="M99.5245 70.6748H98.0911V78.009H99.5245V70.6748Z" fill="white"/>
</g>
<mask id="mask22_276_1078" style="mask-type:luminance" maskUnits="userSpaceOnUse" x="-57" y="-40" width="280" height="198">
<path d="M223 -40H-57V158H223V-40Z" fill="white"/>
</mask>
<g mask="url(#mask22_276_1078)">
<path d="M100.432 70.6748H105.81V72.0053H100.432V70.6748ZM102.428 71.2736H103.808V78.009H102.428V71.2736Z" fill="white"/>
</g>
<mask id="mask23_276_1078" style="mask-type:luminance" maskUnits="userSpaceOnUse" x="-57" y="-40" width="280" height="198">
<path d="M223 -40H-57V158H223V-40Z" fill="white"/>
</mask>
<g mask="url(#mask23_276_1078)">
<path d="M109.502 75.1785V78.009H108.118V75.1785L105.96 70.6748H107.407L108.81 73.8314L110.214 70.6748H111.66L109.502 75.1785Z" fill="white"/>
</g>
</g>
<defs>
<clipPath id="clip0_276_1078">
<rect width="280" height="198" fill="white" transform="translate(-57 -40)"/>
</clipPath>
</defs>
</svg>
